<?xml version="1.0" encoding="UTF-8"?>
<svg width="16px" height="16px" viewBox="0 0 16 16" version="1.1" xmlns="http://www.w3.org/2000/svg" xmlns:xlink="http://www.w3.org/1999/xlink">
    <!-- Generator: Sketch 58 (84663) - https://sketch.com -->
    <title>Asset 24</title>
    <desc>Created with Sketch.</desc>
    <defs>
        <path d="M12.8735632,0.787126437 L14.0634483,1.97701149 L14.7273563,2.63908046 L3.73149425,13.5834483 L3.60091954,13.7121839 L3.47034483,13.8427586 L3.16505747,14.1462069 C2.24551724,14.3705747 0.652873563,15.2717241 0.0937931034,15.3563218 C0.237241379,14.8303448 1.09241379,13.1678161 1.30942529,12.2997701 L1.65517241,11.954023 L1.74344828,11.8675862 L1.87218391,11.7370115 L12.8735632,0.787126437 Z M14.0652874,0.0312643678 C14.4429359,0.040460561 14.8001338,0.204758289 15.0528736,0.485517241 C15.138094,0.568665866 15.212825,0.661925267 15.2754023,0.763218391 C15.393739,0.941596243 15.4576371,1.15054297 15.4593103,1.3645977 C15.4458505,1.65473722 15.3536662,1.93574034 15.1926437,2.17747126 L14.9903448,2.37977011 L13.1383908,0.527816092 L13.3995402,0.266666667 L13.4764107,0.197544479 L13.4764107,0.197544479 L13.5595402,0.136091954 C13.7201716,0.070116273 13.8916662,0.0345701317 14.0652874,0.0312643678 Z" id="path-1"></path>
    </defs>
    <g id="Page-1" stroke="none" stroke-width="1" fill="none" fill-rule="evenodd">
        <g id="Artboard" transform="translate(-851.000000, -616.000000)">
            <g id="Asset-24" transform="translate(851.000000, 616.000000)">
                <g id="Group" transform="translate(0.183908, 0.367816)">
                    <mask id="mask-2" fill="white">
                        <use xlink:href="#path-1"></use>
                    </mask>
                    <use id="Combined-Shape" fill="#B5D0E3" fill-rule="nonzero" xlink:href="#path-1"></use>
                    <path d="M0.0993103448,14.994023 L2.63172414,13.6091954 C2.63172414,13.6091954 12.091954,5.2708046 15.5163218,1.92735632 C15.8271264,1.62390805 15.7517241,0.19862069 15.7517241,0.19862069 C15.7517241,0.19862069 17.3811494,1.19172414 17.462069,1.36091954 C17.5429885,1.53011494 14.2565517,6.02482759 14.2565517,6.02482759 L0.985747126,17.5834483 L-0.88091954,15.6321839 L0.0993103448,14.994023 Z" id="Path" fill="#75A5C6" fill-rule="nonzero" mask="url(#mask-2)"></path>
                    <path d="M-0.303448276,15.1834483 L1.28735632,12.7485057 C1.28735632,12.7485057 10.3981609,3.96505747 14.011954,0.818390805 C14.3393103,0.533333333 15.7296552,0.748505747 15.7296552,0.748505747 C15.7296552,0.748505747 14.9131034,-1.00229885 14.7549425,-1.10344828 C14.5967816,-1.2045977 9.86850575,1.69563218 9.86850575,1.69563218 L-2.75862069,14.0303448 L-1.02436782,16.1158621 L-0.303448276,15.1834483 Z" id="Path" fill="#FFFFFF" fill-rule="nonzero" mask="url(#mask-2)"></path>
                </g>
                <path d="M4.11218391,14.148046 L3.98344828,14.2786207 L3.85287356,14.4091954 L3.65425287,14.2105747 L3.34896552,14.514023 C2.42942529,14.7383908 0.836781609,15.6395402 0.277701149,15.7241379 C0.421149425,15.1981609 1.27632184,13.5356322 1.49333333,12.6675862 L1.80229885,12.3586207 L1.66436782,12.2206897 L1.79494253,12.0901149 L1.92367816,11.9595402 L2.00643678,12.0422989 L1.89057471,12.1581609 C1.89223015,12.1654241 1.89223015,12.1729667 1.89057471,12.1802299 C1.87954023,12.2243678 1.86666667,12.2703448 1.85195402,12.3163218 C1.83724138,12.3622989 1.83908046,12.3604598 1.83172414,12.3825287 C1.71954023,12.7503448 1.55402299,13.1586207 1.3737931,13.5834483 C1.14758621,14.1222989 0.899310345,14.6703448 0.713563218,15.1043678 C0.660229885,15.2331034 0.610574713,15.3508046 0.570114943,15.4556322 C0.673103448,15.4188506 0.787126437,15.3747126 0.912183908,15.3232184 C1.19724138,15.2055172 1.53195402,15.0528736 1.87954023,14.8947126 C2.44770082,14.6232513 3.03034053,14.3831963 3.62482759,14.1756322 L3.72597701,14.1443678 L3.82712644,14.1167816 L3.8491954,14.1167816 L3.96505747,14.0027586 L4.11218391,14.148046 Z" id="Path" fill="#414042" fill-rule="nonzero"></path>
                <path d="M13.2873563,0.763218391 L13.2413793,0.811034483 L13.2413793,0.811034483 C13.2413793,0.790804598 13.2671264,0.777931034 13.2873563,0.763218391 Z" id="Path" fill="#414042" fill-rule="nonzero"></path>
                <path d="M15.4629885,1.1291954 L14.5103448,2.08367816" id="Path"></path>
                <polyline id="Path" points="14.2491954 2.34482759 13.5650575 3.02896552 12.914023 3.67816092 12.137931 4.46528736 9.26344828 7.33057471 8.66758621 7.92643678"></polyline>
                <path d="M16.0386207,0.551724138 L15.7296552,0.862528736" id="Path"></path>
                <path d="M13.851954,2.80091954 C13.8484691,2.79685899 13.8440518,2.79370376 13.8390805,2.79172414 C13.7667448,2.73110012 13.6602603,2.73507342 13.5926437,2.80091954 L13.1972414,3.19448276 C13.1302899,3.26234915 13.1262981,3.37012559 13.188046,3.44275862 L13.1972414,3.4537931 C13.2317732,3.48860922 13.2787793,3.5081928 13.3278161,3.5081928 C13.3768529,3.5081928 13.423859,3.48860922 13.4583908,3.4537931 L13.851954,3.06022989 C13.9232595,2.98849886 13.9232595,2.87265057 13.851954,2.80091954 L13.851954,2.80091954 Z M12.4137931,4.22988506 L12.4027586,4.22988506 C12.3301256,4.16813723 12.2223491,4.17212895 12.1544828,4.23908046 L9.54666667,6.84505747 C9.48237676,6.91533041 9.48237676,7.0230604 9.54666667,7.09333333 C9.54582423,7.09758317 9.54582423,7.10195706 9.54666667,7.1062069 C9.61839769,7.17751239 9.73424599,7.17751239 9.80597701,7.1062069 L12.4137931,4.4983908 C12.4509334,4.46361899 12.4720097,4.41501504 12.4720097,4.36413793 C12.4720097,4.31326082 12.4509334,4.26465687 12.4137931,4.22988506 Z" id="Shape" fill="#414042" fill-rule="nonzero"></path>
                <path d="M15.7296552,0.862528736 C15.6615283,0.764948797 15.5845762,0.673837541 15.4997701,0.590344828 C15.1768803,0.240705355 14.723277,0.0408800829 14.2473563,0.0386206897 C14.1634822,0.0399369499 14.0798461,0.047931577 13.9972414,0.0625287356 C13.6498121,0.127615695 13.3230997,0.275203941 13.0445977,0.492873563 L12.8386207,0.689655172 L1.59632184,11.9337931 C1.57245383,11.9567101 1.55582935,11.9861226 1.54850575,12.0183908 C1.34590271,12.688235 1.09576574,13.3427703 0.8,13.9770115 C0.647356322,14.3301149 0.494712644,14.6703448 0.369655172,14.9645977 C0.265027697,15.1973257 0.174743931,15.4362399 0.0993103448,15.68 C0.0829732236,15.7401579 0.0982218928,15.8044965 0.139820321,15.8509233 C0.181418749,15.8973501 0.243703458,15.9195444 0.305287356,15.9098851 C0.558439637,15.8553795 0.805048283,15.7739987 1.04091954,15.6671264 C1.48045977,15.4832184 2.01747126,15.2312644 2.54528736,14.9977011 C3.00681366,14.7805613 3.48458692,14.5997822 3.97425287,14.4570115 C4.0068866,14.4492537 4.03677715,14.4327185 4.06068966,14.4091954 L15.3324138,3.13931034 L15.5972414,2.87448276 C15.7998158,2.60370225 15.9347507,2.28843381 15.9908046,1.95494253 C16.0040865,1.88026842 16.0108552,1.80458152 16.0110347,1.72873563 C16.0112203,1.41750649 15.9127055,1.11423529 15.7296552,0.862528736 Z M3.95954023,13.9954023 L4.11218391,14.148046 L3.98344828,14.2786207 L3.85287356,14.4091954 L3.65425287,14.2105747 L3.34896552,14.514023 C2.42942529,14.7383908 0.836781609,15.6395402 0.277701149,15.7241379 C0.421149425,15.1981609 1.27632184,13.5356322 1.49333333,12.6675862 L1.80229885,12.3586207 L1.66436782,12.2206897 L1.79494253,12.0901149 L1.92367816,11.9595402 L2.00643678,12.0422989 L12.9765517,1.07218391 L13.0593103,1.15494253 L14.2491954,2.34482759 L14.9112644,3.00689655 L3.9154023,13.9512644 L3.95954023,13.9954023 Z M15.3765517,2.54528736 L15.1742529,2.74758621 L14.5103448,2.08367816 L13.3222989,0.895632184 L13.2413793,0.805517241 C13.257931,0.790804598 13.2763218,0.777931034 13.2965517,0.763218391 L13.2965517,0.763218391 C13.4364232,0.65845569 13.5890692,0.571935698 13.7508046,0.505747126 L13.7508046,0.505747126 C13.911436,0.439771445 14.0829305,0.404225304 14.2565517,0.40091954 C14.6342003,0.410115733 14.9913982,0.574413461 15.2441379,0.855172414 C15.3293583,0.938321038 15.4040894,1.03158044 15.4666667,1.13287356 C15.5853449,1.31177452 15.6492582,1.52140999 15.6505747,1.73609195 C15.634266,2.02567485 15.5395482,2.30537828 15.3765517,2.54528736 L15.3765517,2.54528736 Z" id="Shape" fill="#414042" fill-rule="nonzero"></path>
                <path d="M1.79494253,12.0901149 L3.98344828,14.2786207" id="Path"></path>
                <polygon id="Path" fill="#414042" fill-rule="nonzero" points="4.11218391 14.148046 3.98344828 14.2786207 3.85287356 14.4091954 1.66436782 12.2206897 1.79494253 12.0901149 1.92367816 11.9595402 2.06344828 12.0993103 3.9154023 13.9512644 3.95954023 13.9954023"></polygon>
            </g>
        </g>
    </g>
</svg>