<?xml version="1.0" encoding="UTF-8"?>
<svg width="24px" height="24px" viewBox="0 0 24 24" version="1.1" xmlns="http://www.w3.org/2000/svg" xmlns:xlink="http://www.w3.org/1999/xlink">
    <!-- Generator: Sketch 58 (84663) - https://sketch.com -->
    <title>ontrack_plus-02</title>
    <desc>Created with Sketch.</desc>
    <defs>
        <path d="M22.2471111,10.4888889 L13.9022222,10.4888889 C13.7967626,10.4874872 13.6962085,10.4441206 13.6228076,10.3683843 C13.5494067,10.2926479 13.50921,10.1907851 13.5111111,10.0853333 L13.5111111,1.74222222 C13.5231108,0.927534924 12.9010301,0.243246072 12.0888889,0.177777778 C11.6729509,0.153267772 11.2653502,0.301586255 10.9624333,0.587674458 C10.6595164,0.873762661 10.4881674,1.27223004 10.4888889,1.68888889 L10.4888889,10.0853333 C10.4908372,10.1929484 10.4489457,10.2967302 10.372838,10.372838 C10.2967302,10.4489457 10.1929484,10.4908372 10.0853333,10.4888889 L1.74044444,10.4888889 C0.932717347,10.4771176 0.251973652,11.088935 0.177777778,11.8933333 C0.14813241,12.3122432 0.294152209,12.7245957 0.58081704,13.0314957 C0.867481871,13.3383957 1.26893266,13.5121588 1.68888889,13.5111111 L10.0853333,13.5111111 C10.1907851,13.50921 10.2926479,13.5494067 10.3683843,13.6228076 C10.4441206,13.6962085 10.4874872,13.7967626 10.4888889,13.9022222 L10.4888889,22.2471111 C10.4792215,23.0563325 11.0943288,23.7365141 11.9004444,23.808 C12.3177256,23.8350253 12.7275831,23.6881373 13.032706,23.4022108 C13.3378289,23.1162843 13.5110026,22.7168221 13.5111111,22.2986667 L13.5111111,13.9022222 C13.5139819,13.6874179 13.6874179,13.5139819 13.9022222,13.5111111 L22.2986667,13.5111111 C22.7170115,13.5110685 23.1166192,13.3375989 23.4023276,13.0320123 C23.6880359,12.7264256 23.8342759,12.3160699 23.8062222,11.8986667 C23.7355699,11.0931206 23.0556809,10.4783521 22.2471111,10.4888889 Z" id="path-1"></path>
    </defs>
    <g id="Page-1" stroke="none" stroke-width="1" fill="none" fill-rule="evenodd">
        <g id="Artboard" transform="translate(-958.000000, -713.000000)">
            <g id="ontrack_plus-02" transform="translate(958.000000, 713.000000)">
                <mask id="mask-2" fill="white">
                    <use xlink:href="#path-1"></use>
                </mask>
                <use id="Path" fill="#B5D0E3" fill-rule="nonzero" xlink:href="#path-1"></use>
                <path d="M24.4497778,12.9084444 L24.8817778,12.144 L23.2391111,10.8284444 C23.3929894,10.9986804 23.5033901,11.2036231 23.5608889,11.4257778 C23.6549129,12.0003682 23.3547541,12.567254 22.8266667,12.8124444 C22.6876216,12.8672298 22.5404222,12.8984721 22.3911111,12.9048889 L13.5768889,12.9048889 C13.1910259,12.9048889 12.8782222,13.2176926 12.8782222,13.6035556 L12.8782222,22.4586667 C12.8711407,22.6008081 12.8405016,22.7407865 12.7875556,22.8728889 C12.5417152,23.4012569 11.9741994,23.7013645 11.3991111,23.6071111 C11.1779251,23.5503847 10.9736495,23.4412345 10.8035556,23.2888889 L12.1191111,24.9315556 L12.8782222,24.5013333 L12.8782222,24.7111111 C12.877948,24.9796882 13.0405577,25.221608 13.2893558,25.3227676 C13.5381538,25.4239273 13.8234436,25.3641205 14.0106667,25.1715556 L24.8888889,14.0266667 C25.0692407,13.8409905 25.1243095,13.566983 25.0296966,13.3260457 C24.9350837,13.0851083 24.7082819,12.9217877 24.4497778,12.9084444 Z" id="Path" fill="#75A5C6" fill-rule="nonzero" mask="url(#mask-2)"></path>
                <path d="M11.8062222,-1.01333333 L11.0648889,-0.593777778 L11.0648889,-0.785777778 C11.0642905,-1.07174331 10.8799588,-1.32493044 10.608,-1.41333333 C10.3693433,-1.49019326 10.1077451,-1.42548213 9.93244444,-1.24622222 L-0.940444444,9.89866667 C-1.12319528,10.0790955 -1.18422807,10.3493832 -1.09674046,10.5908337 C-1.00925285,10.8322842 -0.78924527,11.0007392 -0.533333333,11.0222222 L-0.967111111,11.7884444 L0.675555556,13.104 C0.521310948,12.9315469 0.411468464,12.7240666 0.355555556,12.4995556 C0.261531559,11.9249651 0.561690323,11.3580793 1.08977778,11.1128889 C1.22697459,11.058384 1.37247537,11.0277206 1.52,11.0222222 L10.4088889,11.0222222 C10.5838139,11.0222222 10.7515744,10.9527335 10.8752651,10.8290429 C10.9989558,10.7053522 11.0684444,10.5375917 11.0684444,10.3626667 L11.0684444,1.31022222 C11.0802406,1.21780672 11.1047696,1.12746832 11.1413333,1.04177778 C11.3871737,0.513409768 11.9546895,0.213302172 12.5297778,0.307555556 C12.7509537,0.365255675 12.9551414,0.47496848 13.1253333,0.627555556 L11.8062222,-1.01333333 Z" id="Path" fill="#FFFFFF" fill-rule="nonzero" mask="url(#mask-2)"></path>
                <path d="M22.2471111,10.4888889 L22.2471111,10.3111111 L13.9395556,10.3111111 C13.8713396,10.3097164 13.8065028,10.2811478 13.7594391,10.2317476 C13.7123754,10.1823474 13.6869793,10.1162035 13.6888889,10.048 L13.6888889,1.74222222 C13.6889656,1.30633417 13.5289,0.885608371 13.2391111,0.56 C12.9512505,0.229995727 12.543654,0.0284370336 12.1066667,0 L11.9946667,0 C11.0640026,0.00293895392 10.3111065,0.758220144 10.3111111,1.68888889 L10.3111111,10.0444444 C10.3146437,10.1155695 10.2881824,10.1849154 10.2381665,10.2356073 C10.1881506,10.2862991 10.1191661,10.3136887 10.048,10.3111111 L1.74044444,10.3111111 C1.30516906,10.31147 0.885150671,10.4715071 0.56,10.7608889 C0.233138239,11.0466695 0.0319582993,11.449668 -8.43310037e-06,11.8826667 C-8.43310037e-06,11.92 -8.43310037e-06,11.9573333 -8.43310037e-06,11.9946667 C-0.00141741087,12.4435112 0.175892658,12.8744581 0.492774523,13.1923407 C0.809656387,13.5102232 1.24004211,13.6888911 1.68888889,13.6888889 L10.0444444,13.6888889 C10.1132523,13.6860057 10.1803198,13.7109672 10.2304991,13.7581358 C10.2806783,13.8053043 10.3097367,13.8707011 10.3111111,13.9395556 L10.3111111,22.2471111 C10.31147,22.6823865 10.4715071,23.1024049 10.7608889,23.4275556 C11.0489917,23.7547663 11.4547872,23.9547883 11.8897778,23.984 C11.9271111,23.984 11.9644444,23.984 12.0017778,23.984 C12.449699,23.984 12.8792745,23.806064 13.1960026,23.4893359 C13.5127307,23.1726078 13.6906667,22.7430323 13.6906667,22.2951111 L13.6906667,13.9395556 C13.694346,13.8033543 13.803384,13.6935375 13.9395556,13.6888889 L22.2951111,13.6888889 C23.2278587,13.6888889 23.984,12.9327476 23.984,12 C23.984,11.9626667 23.984,11.9253333 23.984,11.888 C23.9547883,11.4530094 23.7547663,11.0472139 23.4275556,10.7591111 C23.1021437,10.4703739 22.6821537,10.3109801 22.2471111,10.3111111 L22.2471111,10.6666667 C22.594651,10.6658641 22.9304564,10.7923445 23.1911111,11.0222222 C23.4493509,11.2487293 23.6072574,11.5683782 23.6302222,11.9111111 C23.6302222,11.9395556 23.6302222,11.9697778 23.6302222,12 C23.6306949,12.3537667 23.4903709,12.6931799 23.2402198,12.9433309 C22.9900688,13.193482 22.6506556,13.333806 22.2968889,13.3333333 L13.9413333,13.3333333 C13.6070393,13.3352643 13.3362432,13.6052686 13.3333333,13.9395556 L13.3333333,22.2951111 C13.333806,22.6488778 13.193482,22.988291 12.9433309,23.238442 C12.6931799,23.4885931 12.3537667,23.6289171 11.9999916,23.6284444 L11.9111111,23.6284444 C11.5683782,23.6054796 11.2487293,23.4475731 11.0222222,23.1893333 C10.7923445,22.9286787 10.6658641,22.5928732 10.6666667,22.2453333 L10.6666667,13.9395556 C10.6652605,13.7770478 10.5992298,13.6217826 10.4831536,13.5080413 C10.3670775,13.3943001 10.2105028,13.3314376 10.048,13.3333333 L1.68888889,13.3333333 C1.33448666,13.3328627 0.994813069,13.1915034 0.74471333,12.9404033 C0.494613591,12.6893031 0.354611428,12.3490679 0.355555556,11.9946667 C0.355555556,11.9644444 0.355555556,11.9342222 0.355555556,11.9057778 C0.377870386,11.5632586 0.535152012,11.2435805 0.792888889,11.0168889 C1.05354356,10.7870112 1.38934901,10.6605308 1.73688889,10.6613333 L10.048,10.6613333 C10.2117319,10.663238 10.369389,10.5994036 10.4856728,10.4841222 C10.6019567,10.3688407 10.6671537,10.2117422 10.6666667,10.048 L10.6666667,1.68888889 C10.6676335,0.954989137 11.2607767,0.359463842 11.9946667,0.355555556 L12.0888889,0.355555556 C12.4314081,0.377870386 12.7510862,0.535152012 12.9777778,0.792888889 C13.2088792,1.05491865 13.3354441,1.39284708 13.3333333,1.74222222 L13.3333333,10.048 C13.3314376,10.2105028 13.3943001,10.3670775 13.5080413,10.4831536 C13.6217826,10.5992298 13.7770478,10.6652605 13.9395556,10.6666667 L22.2471111,10.6666667 L22.2471111,10.4888889 Z" id="Path" fill="#414042" fill-rule="nonzero"></path>
                <path d="M12.2524444,3.73333333 L12.2524444,7.28888889 C12.2524444,7.38707284 12.3320383,7.46666667 12.4302222,7.46666667 C12.5284062,7.46666667 12.608,7.38707284 12.608,7.28888889 L12.608,3.73333333 C12.608,3.63514938 12.5284062,3.55555556 12.4302222,3.55555556 C12.3320383,3.55555556 12.2524444,3.63514938 12.2524444,3.73333333 Z M12.2524444,1.77777778 L12.2524444,2.31111111 C12.2524444,2.40929507 12.3320383,2.48888889 12.4302222,2.48888889 C12.5284062,2.48888889 12.608,2.40929507 12.608,2.31111111 L12.608,1.77777778 C12.608,1.67959382 12.5284062,1.6 12.4302222,1.6 C12.3320383,1.6 12.2524444,1.67959382 12.2524444,1.77777778 Z" id="Shape" fill="#414042" fill-rule="nonzero"></path>
            </g>
        </g>
    </g>
</svg>