<svg xmlns="http://www.w3.org/2000/svg" viewBox="0 0 414.73 233.89"><defs><style>.cls-1{fill:#b5d0e2;}.cls-1,.cls-2,.cls-4,.cls-5,.cls-6,.cls-7,.cls-8,.cls-9{stroke:#414042;stroke-width:2px;}.cls-1,.cls-2,.cls-6,.cls-7,.cls-9{stroke-miterlimit:10;}.cls-2,.cls-3,.cls-8{fill:#e6e7e8;}.cls-4,.cls-5,.cls-6,.cls-7,.cls-9{fill:none;}.cls-4,.cls-5,.cls-6,.cls-7,.cls-8,.cls-9{stroke-linecap:round;}.cls-4,.cls-5,.cls-8{stroke-miterlimit:5;}.cls-5{stroke-dasharray:12.22 12.22;}.cls-7{stroke-dasharray:11.18 11.18;}.cls-8{stroke-dasharray:12;}.cls-9{stroke-dasharray:11.94 11.94;}</style></defs><title>logo_bl-b_1</title><g id="Layer_2" data-name="Layer 2"><g id="Layer_1-2" data-name="Layer 1"><path class="cls-1" d="M116.94,1a115.91,115.91,0,0,1,100.6,58.26H269V232.89h71.66V59.26h73.07V1Z"/><path class="cls-1" d="M217.54,59.26A115.91,115.91,0,0,0,116.94,1H1V59.26H16.34a115.94,115.94,0,1,0,201.2,0ZM116.94,174.64A57.69,57.69,0,1,1,174.63,117,57.69,57.69,0,0,1,116.94,174.64Z"/><polyline class="cls-2" points="1 59.26 52.64 59.26 116.94 59.26"/><line class="cls-3" x1="194.06" y1="30.37" x2="413.73" y2="30.37"/><line class="cls-4" x1="194.06" y1="30.37" x2="200.06" y2="30.37"/><line class="cls-5" x1="212.28" y1="30.37" x2="401.62" y2="30.37"/><line class="cls-4" x1="407.73" y1="30.37" x2="413.73" y2="30.37"/><line class="cls-3" x1="1" y1="30.37" x2="113.61" y2="30.37"/><line class="cls-6" x1="1" y1="30.37" x2="7" y2="30.37"/><line class="cls-7" x1="18.18" y1="30.37" x2="102.02" y2="30.37"/><line class="cls-6" x1="107.61" y1="30.37" x2="113.61" y2="30.37"/><line class="cls-8" x1="304.98" y1="232.89" x2="304.98" y2="59.26"/><path class="cls-6" d="M52.09,59.51c-1.34,1.48-2.62,3-3.85,4.59"/><path class="cls-9" d="M41.55,74a87.13,87.13,0,1,0,89.18-42.34c-1.44-.23-3.25-.45-5.2-.63"/><path class="cls-6" d="M119.58,30.57c-2.21-.13-4.31-.2-6-.2"/></g></g></svg>